<svg width="597" height="108" viewBox="0 0 597 108" fill="none" xmlns="http://www.w3.org/2000/svg">
<path d="M292.467 5.66699C289.801 8.60032 287.667 11.8003 287.667 12.867C287.667 13.9337 285.667 14.867 282.334 15.4003C279.534 15.8003 275.134 17.5337 272.734 19.1337L268.334 22.3337L277.667 23.1337C287.934 23.9337 291.534 25.4003 295.401 30.3337L298.067 33.667L301.934 29.8003C305.534 26.2003 315.267 23.0003 322.601 23.0003C324.867 23.0003 325.134 22.7337 323.534 20.867C321.134 17.9337 315.001 15.0003 311.001 15.0003C309.134 15.0003 307.667 14.2003 307.667 13.267C307.667 11.0003 300.067 0.333657 298.467 0.333657C297.801 0.333657 295.134 2.73366 292.467 5.66699Z" fill="#F2BB4A"/>
<path d="M266.735 29.667C263.001 31.9337 262.335 33.0003 262.335 37.5337C262.335 43.0003 265.001 46.467 268.335 45.1337C271.001 44.2003 270.868 38.467 268.201 36.2003C266.201 34.6003 266.335 34.2003 269.001 32.067C272.868 28.867 279.801 29.0003 286.335 32.3337C297.801 38.2003 299.001 53.4003 288.735 62.467C272.201 77.4003 241.668 82.467 206.068 76.467C182.601 72.3337 140.868 62.2003 139.535 60.2003C137.801 57.4003 138.068 48.7337 140.201 43.9337C145.001 32.2003 162.601 27.0003 171.401 34.6003C175.935 38.6003 176.335 42.467 172.468 46.3337C168.201 50.6003 163.135 50.6003 158.868 46.3337C155.268 42.6003 154.335 42.3337 154.335 44.467C154.335 47.267 162.068 53.667 165.668 53.667C174.868 53.667 181.535 45.267 178.335 37.667C175.535 30.867 171.001 28.3337 161.801 28.3337C152.068 28.3337 143.935 31.667 139.935 37.267C136.601 42.067 133.935 53.0003 135.001 57.5337C135.801 60.6003 135.668 60.7337 130.068 59.8003C126.868 59.267 119.001 57.9337 112.335 56.867C105.801 55.8003 87.4014 54.467 71.5347 54.067C47.4014 53.4003 41.2681 53.667 32.7347 55.5337C9.26807 60.7337 -4.9986 77.4003 1.8014 91.667C4.2014 96.7337 11.9347 101.534 17.6681 101.667C21.9347 101.667 28.6014 96.867 29.5347 93.0003C30.7347 88.467 27.2681 82.7337 24.2014 83.9337C22.4681 84.6003 22.2014 86.067 22.7347 90.467C23.4014 96.7337 22.4681 97.667 15.5347 97.667C13.1347 97.667 10.3347 96.467 8.33473 94.467C-4.9986 81.1337 12.4681 62.6003 41.6681 58.867C57.0014 57.0003 96.0681 59.1337 119.668 63.1337C136.201 65.9337 136.335 65.9337 141.935 71.8003C160.068 90.6003 203.801 97.0003 246.068 87.0003C268.468 81.667 288.868 71.267 294.735 62.2003C296.335 59.667 297.935 57.667 298.335 57.8003C298.735 57.8003 300.601 60.067 302.468 62.7337C309.401 72.867 327.801 81.667 355.001 88.067C375.001 92.7337 406.735 93.0003 422.601 88.6003C436.868 84.7337 447.001 79.4003 454.201 72.2003L460.335 65.9337L477.535 63.0003C511.401 57.267 557.001 57.267 571.801 62.867C587.001 68.6003 595.535 80.2003 591.668 89.667C589.668 94.3337 584.335 97.667 578.468 97.667C573.401 97.667 572.735 96.467 574.601 91.267C576.601 86.067 574.201 82.3337 570.201 84.467C568.335 85.4003 567.668 87.267 567.668 91.0003C567.668 97.0003 570.868 99.9337 578.468 101.134C588.201 102.734 598.068 91.0003 596.335 80.2003C594.468 69.1337 578.735 58.067 560.335 54.867C546.868 52.6003 499.401 54.2003 479.668 57.5337C471.268 59.1337 463.535 60.3337 462.735 60.3337C461.535 60.3337 461.001 57.9337 461.001 52.6003C461.001 46.3337 460.201 43.667 457.135 38.867C452.468 31.4003 446.468 28.3337 436.335 28.3337C424.735 28.3337 417.001 33.667 417.001 41.9337C417.001 51.1337 429.935 56.867 437.401 51.0003C439.401 49.4003 441.001 47.0003 441.001 45.667C441.001 43.4003 440.601 43.4003 437.668 46.3337C435.935 48.2003 432.868 49.667 431.001 49.667C427.268 49.667 421.001 44.3337 421.001 41.1337C421.001 40.067 422.468 37.4003 424.201 35.4003C427.135 32.067 428.201 31.667 436.201 31.667C445.535 31.667 449.535 33.667 454.868 40.7337C457.668 44.6003 459.268 57.1337 457.268 60.067C455.801 62.2003 407.135 73.8003 386.468 77.1337C342.335 84.067 301.001 69.8003 301.001 47.5337C301.001 33.667 319.801 24.3337 330.068 33.1337C330.335 33.267 329.268 34.7337 327.668 36.3337C323.801 40.2003 324.601 45.0003 329.001 45.0003C331.668 45.0003 332.468 44.067 333.535 39.8003C334.601 34.867 334.468 34.3337 330.468 30.7337C322.868 23.9337 308.601 26.2003 300.735 35.4003L298.335 38.3337L295.535 35.0003C290.468 29.0003 286.068 27.0003 278.335 27.0003C273.401 27.0003 269.668 27.8003 266.735 29.667ZM163.135 72.2003C188.335 78.3337 204.468 81.4003 221.668 83.267C235.801 84.7337 237.001 85.0003 231.668 85.9337C228.335 86.3337 217.535 86.867 207.401 86.867C181.135 87.0003 164.201 83.267 151.401 74.6003C145.401 70.6003 143.535 68.3337 146.201 68.3337C146.735 68.3337 154.468 70.067 163.135 72.2003ZM447.668 72.467C436.335 82.3337 423.535 85.8003 395.668 86.6003C384.335 86.867 371.668 86.6003 367.668 85.9337L360.335 84.6003L366.201 84.467C376.601 84.2003 398.468 80.3337 423.668 74.467C437.268 71.267 449.268 68.6003 450.335 68.6003C451.401 68.467 450.335 70.2003 447.668 72.467Z" fill="#F2BB4A"/>
<path d="M137.401 29.6666C132.067 30.8666 127.267 33.9333 124.201 38.0666C121.934 40.9999 121.667 41.1333 116.201 39.1333C111.534 37.3999 110.201 37.3999 108.467 38.8666C106.067 40.8666 105.667 45.1333 107.667 46.3333C110.734 48.1999 108.601 49.3999 101.001 50.3333C91.2672 51.3999 85.4005 49.5333 84.2005 44.7333C83.0005 40.1999 87.1338 35.9333 91.6672 36.8666C95.0005 37.5333 95.0005 37.5333 91.9338 36.0666C88.0672 34.0666 82.8672 36.3333 80.7338 40.8666C79.5338 43.5333 79.6672 44.8666 81.5338 47.5333C84.4672 52.1999 92.3338 54.0666 104.734 52.9999C112.867 52.3333 116.601 52.5999 123.134 54.7333L131.134 57.2666L130.601 53.5333C129.667 47.5333 133.001 40.1999 139.267 34.0666C145.267 28.1999 145.134 27.7999 137.401 29.6666Z" fill="#F2BB4A"/>
<path d="M455.933 32.8667C462.067 38.4667 465.267 44.8667 465.533 51.2667C465.667 57 465.8 57.1334 475 54.2C479.933 52.7334 484.333 52.3334 491.933 53C509.4 54.4667 517.4 50.3334 515.133 41C514.067 36.7334 508.333 34.2 504.067 36.2C502.333 37 501 38.2 501 39C501 39.9334 501.933 39.5334 503.133 38.4667C505.8 35.6667 507.133 35.8 510.333 39C513.933 42.6 513.667 44.8667 509.4 48.3334C506.067 50.8667 504.6 51.1334 497.133 50.4667C487.533 49.6667 486.6 49.1334 488.867 46.4667C491.133 43.6667 489.4 39.1334 485.667 38.2C484.067 37.8 480.867 38.3334 478.733 39.4C475 41.4 474.733 41.4 471.267 37C468.733 33.8 465.533 31.8 460.733 30.3334C451 27.5334 450.333 27.8 455.933 32.8667Z" fill="#F2BB4A"/>
<path d="M67.6673 102.333C66.8673 103.4 66.4673 104.867 67.0007 105.667C68.0673 107.4 72.6007 107.4 73.6673 105.667C74.2007 104.733 150.601 104.333 298.334 104.333C446.067 104.333 522.467 104.733 523.001 105.667C524.601 108.2 529.001 107.133 529.001 104.333C529.001 101.267 524.867 98.8666 523.934 101.4C523.267 103.533 73.0007 103.667 73.0007 101.667C73.0007 99.6666 69.534 100.067 67.6673 102.333Z" fill="#F2BB4A"/>
</svg>
