<svg width="657" height="92" viewBox="0 0 657 92" fill="none" xmlns="http://www.w3.org/2000/svg">
<path d="M97.3324 2.01668C94.9324 4.81668 99.0657 9.35002 101.599 6.81668C103.599 4.81668 550.799 4.41668 554.666 6.55002C558.399 8.55002 561.199 4.55002 558.266 1.61668C556.266 -0.383318 555.866 -0.383318 553.599 1.61668C551.332 3.75002 535.199 3.88335 327.732 3.88335C130.799 3.88335 104.132 3.61668 102.666 1.88335C100.532 -0.649985 99.4657 -0.649985 97.3324 2.01668Z" fill="#F2BB4A"/>
<path d="M4.40008 19.0839C-0.133256 22.9505 1.06674 24.8172 6.66674 22.5505C9.06674 21.4839 10.6667 19.8839 10.6667 18.4172C10.6667 15.0839 8.93341 15.2172 4.40008 19.0839Z" fill="#F2BB4A"/>
<path d="M104.667 17.8839C94.8 20.0172 87.0667 23.0839 76.6667 28.9506C62.9333 36.6839 46.2667 44.6839 38.6667 47.2172C22.8 52.4172 8.93333 49.2172 2.93333 38.6839C0.8 35.0839 0 34.5506 0 36.5506C0 40.9506 7.46667 48.8172 14 51.3506C27.0667 56.2839 44.4 51.4839 76.6667 33.6172C86.2667 28.4172 95.8667 23.6172 98 23.2172L102 22.2839L97.0667 26.4172C88 34.1506 87.8667 46.9506 96.9333 52.2839C102.933 55.7506 114.533 56.6839 118 54.1506C120.533 52.1506 120.533 52.0172 118.267 51.0839C116.8 50.5506 113.867 51.0839 111.2 52.4172C106.8 54.4172 106.267 54.4172 101.333 51.8839C88.1333 45.0839 91.3333 31.4839 107.733 24.9506C122.4 19.2172 153.2 21.6172 176.4 30.4172L180.133 31.8839L176 35.3506C162.933 46.4172 163.333 65.2172 176.8 72.8172C185.333 77.7506 195.467 76.0172 201.6 68.6839C205.067 64.5506 204.667 56.9506 200.933 53.4839C196.267 49.0839 189.333 49.8839 189.333 54.6839C189.333 57.7506 192.4 58.0172 195.067 55.2172C196.8 53.6172 197.333 53.6172 199.2 55.7506C202.4 59.3506 201.867 64.2839 197.733 68.1506C185.2 80.0172 166.267 67.0839 170.8 50.0172C172.533 43.8839 181.067 34.5506 184.933 34.5506C186.4 34.5506 198.933 39.2172 212.8 45.0839C226.667 50.8172 241.867 56.8172 246.667 58.2839C272.8 66.8172 296.133 69.0839 309.733 64.2839C316.8 61.7506 326.667 53.4839 326.667 49.8839C326.667 46.4172 328.533 47.6172 331.333 52.8172C336.667 62.6839 346 66.5506 364.933 66.5506C386 66.5506 405.067 61.2172 445.2 44.2839C458 38.9506 469.467 34.5506 470.8 34.5506C474.8 34.5506 482.267 42.1506 484.8 48.6839C486.667 53.6172 486.8 55.4839 485.467 59.8839C483.867 65.2172 478.133 70.6839 472.267 72.5506C461.733 75.7506 450.4 63.6172 456.4 55.3506C458 53.2172 458.267 53.2172 459.867 55.0839C462.4 58.0172 466.667 57.8839 466.667 54.6839C466.667 52.4172 463.333 50.5506 459.067 50.5506C455.6 50.5506 452 55.7506 452 60.8172C452 66.6839 454.8 70.6839 460.933 73.7506C473.733 80.1506 489.867 69.7506 489.6 55.2172C489.6 48.4172 486.933 42.8172 480.8 36.6839L476.267 32.1506L479.6 30.6839C481.467 29.7506 488.533 27.7506 495.2 26.0172C525.333 18.1506 552.533 21.3506 560 33.6172C564.933 41.4839 562.8 48.2839 554.133 52.4172C549.867 54.4172 549.2 54.4172 544.933 52.4172C540.133 50.1506 534.4 50.8172 536.933 53.3506C541.6 58.0172 556.533 55.3506 561.867 49.0839C567.467 42.4172 566.4 34.2839 558.8 26.1506L555.333 22.2839L562.4 24.9506C566.267 26.4172 575.333 30.9506 582.4 35.0839C605.867 48.4172 618.8 53.2172 631.333 53.2172C643.333 53.0839 653.867 46.1506 655.467 37.2172L656.133 32.5506L653.733 37.4839C648.933 47.2172 638.933 51.2172 624.667 48.9506C614.533 47.3506 604.667 43.2172 585.733 32.5506C565.867 21.3506 553.867 17.2172 538 16.2839C523.867 15.4839 501.467 18.9506 482.533 25.0839C471.067 28.8172 470.4 28.8172 464.267 26.9506C455.467 24.2839 438.133 25.4839 425.2 29.7506C419.6 31.6172 407.333 36.8172 397.867 41.2172C367.067 55.8839 353.733 58.8172 341.733 53.3506C336.533 50.9506 332 45.2172 332 41.0839C332 37.3506 337.6 28.2839 341.2 26.1506C348.4 21.8839 357.333 24.6839 357.333 31.2172C357.333 32.9506 356 35.3506 354.4 36.4172C352.8 37.6172 352.133 38.5506 353.067 38.5506C355.467 38.5506 360 33.4839 360 30.8172C360 26.6839 356 22.6839 350.533 21.2172C345.867 19.8839 344.4 20.1506 339.333 22.5506C335.867 24.1506 332.267 27.3506 330.533 30.0172L327.733 34.6839L325.467 30.4172C322.267 23.8839 317.067 20.8172 310 20.8172C298.933 20.8172 292.267 29.4839 298.533 35.7506C300.133 37.3506 302.133 38.5506 302.933 38.5506C303.867 38.5506 303.2 37.6172 301.6 36.4172C297.867 33.7506 297.867 28.6839 301.6 26.0172C308.133 21.3506 317.067 25.0839 321.467 34.2839C324 39.4839 324.133 40.4172 322.4 44.9506C318.4 55.4839 304 58.6839 285.867 53.0839C280.8 51.4839 268.667 46.4172 258.8 41.6172C227.467 26.5506 210.4 22.6839 193.467 27.0839L185.067 29.2172L170.4 24.5506C145.733 16.5506 121.733 14.1506 104.667 17.8839ZM216.8 29.3506C227.6 31.2172 233.333 33.3506 257.333 44.5506C268.667 49.8839 281.333 55.3506 285.333 56.6839C293.867 59.4839 308.533 59.8839 313.067 57.3506C314.8 56.4172 316.533 56.0172 316.933 56.4172C317.467 56.8172 314.8 58.4172 311.333 60.0172C293.467 67.8839 268.667 63.3506 218.267 43.0839C204.133 37.4839 192.133 32.4172 191.467 31.7506C190.267 30.6839 199.333 28.2839 205.467 28.0172C207.333 27.8839 212.4 28.5506 216.8 29.3506ZM462.4 30.4172C464.4 31.6172 464.4 31.7506 462 32.6839C460.533 33.2172 450.933 37.2172 440.667 41.6172C392.933 62.0172 370.933 66.9506 351.333 61.7506C339.867 58.8172 340 57.7506 351.467 58.2839C364.8 58.9506 369.733 57.6172 396.533 45.3506C428.667 30.5506 438.8 27.6172 452.4 28.5506C456.667 28.9506 461.2 29.7506 462.4 30.4172Z" fill="#F2BB4A"/>
<path d="M645.334 18.4164C645.334 21.0831 652.667 24.9498 654.401 23.2164C655.467 22.2831 648.667 15.8831 646.534 15.8831C645.867 15.8831 645.334 16.9498 645.334 18.4164Z" fill="#F2BB4A"/>
<path d="M324.266 61.2168C320.266 66.4168 310.933 70.5501 299.866 72.4168C294.799 73.2168 290.666 74.2835 290.666 74.8168C290.666 76.2835 298.533 80.1501 303.733 81.3501C305.999 81.8835 310.266 81.7501 312.933 81.2168C317.466 80.1501 318.133 80.4168 322.933 85.6168L327.999 91.2168L333.066 85.6168C337.999 80.2835 338.399 80.1501 343.466 81.2168C346.266 81.8835 350.133 82.0168 351.999 81.6168C356.799 80.5501 365.333 76.0168 365.333 74.6835C365.333 74.0168 361.866 73.0835 357.733 72.5501C346.399 71.2168 336.799 67.0835 332.133 61.8835C329.866 59.3501 327.866 57.2168 327.733 57.3501C327.466 57.3501 325.999 59.0835 324.266 61.2168Z" fill="#F2BB4A"/>
</svg>
