<svg width="611" height="341" viewBox="0 0 611 341" fill="none" xmlns="http://www.w3.org/2000/svg">
<path d="M304.933 0.30187C304.133 3.50187 302.4 32.3019 302.533 41.6352C302.667 44.1685 302 47.6352 301.067 49.2352C300 51.3685 300 53.2352 300.8 55.2352C302.533 59.2352 301.733 62.7019 298.8 63.6352C297.6 64.0352 294.267 66.7019 291.467 69.5019C287.2 73.9019 286.133 75.9019 285.467 82.0352L284.667 89.3685L270.267 98.8352C252.267 110.702 236.4 126.035 231.067 136.969C222.133 154.835 220.8 176.302 227.467 195.902C229.467 201.902 229.467 202.169 226.8 204.169C224.4 206.035 224.267 206.969 225.333 211.635C228 222.702 226.533 233.635 222.667 233.635C220.533 233.635 220.4 232.569 220.933 222.569C221.6 213.235 221.2 210.702 218.933 206.169C216 200.302 207.467 191.902 199.733 187.102C196.133 184.969 194.667 183.102 194.667 180.969C194.667 179.235 193.2 176.702 191.333 175.235C188.667 173.102 188 171.369 188 166.835C188 158.835 185.467 154.969 185.2 162.302C185.067 165.235 184.933 168.569 185.067 169.769C185.2 170.969 183.733 173.369 182 174.969C180.133 176.702 178.667 179.369 178.667 181.102C178.667 183.102 176.8 185.235 172.133 188.169C168.533 190.569 162.933 195.235 159.6 198.835C152.4 206.569 149.733 216.035 151.867 225.769C153.867 234.435 153.733 234.969 149.333 234.969H145.333V220.302C145.333 211.369 145.867 205.635 146.667 205.635C147.467 205.635 148 204.702 148 203.635C148 202.569 146.8 201.635 145.467 201.635C140.933 201.635 140.933 193.369 145.467 190.835C147.467 189.902 148 188.035 148 182.835C148 176.569 147.467 175.502 142.267 170.169C139.2 166.969 135.867 163.502 134.933 162.302C133.467 160.702 132.667 160.569 131.2 161.769C130.133 162.569 129.333 163.902 129.333 164.569C129.333 165.369 126.8 168.169 123.733 170.835C118.667 175.369 118.267 176.302 118.4 182.302C118.4 187.502 119.067 189.369 121.2 190.835C125.067 193.369 125.2 201.635 121.333 201.635C119.867 201.635 118.667 202.569 118.667 203.635C118.667 204.702 119.333 205.635 120 205.635C120.8 205.635 121.333 212.302 121.333 222.969C121.333 238.035 121.067 240.302 119.2 240.302C117.333 240.302 117.333 240.035 118.8 238.169C120.4 236.302 120.133 235.635 116.933 233.102L113.333 230.169V201.769C113.333 174.302 113.467 173.369 116.133 172.702C118 172.169 118.667 171.102 118.4 169.102C118.133 166.969 116.933 166.169 113.6 165.902C109.2 165.502 109.2 165.369 109.6 159.235C110 153.635 110.533 152.569 115.067 149.635C119.067 147.102 119.733 146.035 118.4 144.969C117.467 144.169 116.667 140.702 116.533 136.702C116.4 128.435 114.133 124.569 106 118.969C102.667 116.702 100 114.035 100 113.102C100 112.035 99.0667 110.569 98 109.635C96.9333 108.702 95.8667 106.035 95.8667 103.769L95.6 99.6352L95.0667 103.635C94.6667 105.769 93.3333 108.702 91.8667 110.035C90.5333 111.369 89.3333 113.102 89.3333 114.035C89.2 114.969 86.9333 117.235 84 119.235C76.6667 124.302 74 128.969 74 136.969C74 140.835 73.3333 144.169 72.2667 144.969C70.9333 146.035 71.6 147.102 75.6 149.635C80.1333 152.569 80.6667 153.635 81.0667 159.235C81.4667 165.369 81.4667 165.502 77.0667 165.902C73.7333 166.169 72.5333 166.969 72.2667 169.102C72 171.102 72.6667 172.169 74.5333 172.702C77.2 173.369 77.3333 174.302 77.3333 201.769V230.169L73.7333 233.235L70 236.302L73.0667 238.835C75.7333 241.102 76 242.569 76 253.635C76 261.369 75.4667 265.502 74.6667 264.969C74 264.569 73.3333 263.102 73.3333 261.902C73.3333 253.102 66.9333 243.769 57.0667 237.902C55.0667 236.702 53.3333 234.835 53.3333 233.769C53.3333 232.702 52.1333 230.569 50.8 229.102C49.3333 227.502 48 224.702 47.7333 222.702C46.9333 217.102 45.3333 216.569 45.3333 221.902C45.3333 224.835 44.4 227.369 42.6667 228.969C41.2 230.302 40 232.302 40 233.502C39.8667 234.702 36.8 237.769 32.9333 240.302C25.4667 245.369 20 253.902 20 260.569C20 264.702 20.1333 264.569 9.06667 264.569C2.53333 264.569 1.46667 264.835 0.8 267.369C-0.266667 271.369 -0.266667 317.502 0.8 330.035L1.73333 340.302H305.333H609.067L609.867 337.369C610.933 332.969 610.8 267.902 609.6 266.169C609.067 265.235 605.333 264.569 601.333 264.569C590.533 264.569 590.667 264.702 590.667 260.302C590.667 251.902 583.067 241.502 573.867 237.369C571.867 236.435 570.667 234.702 570.667 232.835C570.667 231.102 569.467 229.102 568 228.302C566 227.235 565.333 225.502 565.2 221.235C565.067 215.902 565.067 215.769 564 219.502C563.333 221.635 563.067 223.769 563.333 224.302C563.733 224.835 562.8 226.302 561.333 227.635C559.867 228.969 558.667 231.102 558.667 232.435C558.667 233.769 557.333 235.635 555.733 236.435C554.133 237.235 550 240.702 546.533 243.902C541.333 248.835 539.867 251.235 538.533 257.102C537.6 261.102 536.4 264.702 535.733 265.102C535.2 265.502 534.667 260.302 534.667 253.635C534.667 242.835 535.067 241.102 537.467 239.235C540.267 236.835 539.867 232.302 536.667 232.302C534.933 232.302 533.333 210.835 533.333 186.569C533.333 174.435 533.6 173.369 536.133 172.702C538 172.169 538.667 171.102 538.4 169.102C538.133 166.969 536.933 166.169 533.6 165.902C529.2 165.502 529.2 165.369 529.6 159.235C530 153.902 530.667 152.702 534.667 149.902C539.733 146.569 541.2 144.302 538.4 144.302C537.067 144.302 536.533 142.302 536.533 137.235C536.533 128.835 534 124.435 525.733 118.835C522.667 116.702 520 114.035 520 113.102C520 112.035 519.067 110.569 518 109.635C516.933 108.702 516 106.035 515.867 103.769C515.867 100.302 515.6 100.035 514.8 102.302C514.133 103.769 514 105.502 514.267 106.035C514.667 106.702 513.733 108.302 512.133 109.769C510.533 111.235 509.333 113.102 509.333 114.035C509.2 114.969 506.8 117.235 503.867 119.369C496.133 124.702 493.067 130.302 493.733 137.902C494 141.502 493.733 144.302 493.2 144.302C490.133 144.302 492.533 148.035 496.667 150.035C501.067 152.169 501.333 152.569 501.333 158.969C501.333 165.502 501.2 165.635 497.333 165.635C492 165.635 490.4 169.369 494.4 172.035C497.2 173.902 497.333 174.702 497.333 202.435C497.333 229.902 497.2 230.969 494.533 232.435C492.533 233.502 491.867 234.835 492.4 237.102C492.8 239.235 492.4 240.302 491.2 240.302C489.733 240.302 489.333 236.702 489.333 222.969C489.333 212.302 489.867 205.635 490.667 205.635C491.467 205.635 492 204.702 492 203.635C492 202.569 490.8 201.635 489.333 201.635C485.2 201.635 485.6 193.369 489.733 191.102C492.4 189.769 492.8 188.435 492.667 182.702C492.533 176.702 492 175.502 487.2 171.102C484.4 168.302 481.2 164.569 480.133 162.569L478.267 158.969L476.133 162.035C474.933 163.769 471.467 167.635 468.4 170.569C463.067 175.502 462.667 176.435 462.667 182.569C462.667 187.902 463.2 189.769 465.333 191.102C466.933 192.169 468.267 194.702 468.4 196.969C468.667 200.169 468.133 201.102 465.733 201.369C462.267 201.902 461.733 204.035 464.667 206.169C466.4 207.369 466.533 209.902 465.867 221.369L464.933 234.969H460.933C457.067 234.969 457.067 234.835 458.133 229.902C460 222.302 459.333 210.702 457.067 206.302C454.267 200.969 445.6 192.435 438.8 188.302C435.067 186.035 433.333 184.035 433.333 181.902C433.333 180.169 431.6 177.235 429.6 175.235C426.267 172.035 425.733 170.569 425.467 162.302C425.333 157.235 424.933 152.835 424.667 152.569C424.4 152.302 423.867 156.835 423.333 162.435C422.4 171.102 421.733 173.235 419.2 175.369C417.467 176.702 416 179.235 416 180.835C416 183.102 413.867 185.502 408.133 189.369C392.4 200.435 388.4 207.902 389.867 223.902C390.533 233.102 390.533 233.635 387.867 233.635C385.2 233.635 385.2 232.969 385.467 219.635C385.733 207.635 385.467 205.369 383.467 203.902C381.6 202.435 381.467 201.635 382.667 198.302C385.2 191.769 388 176.569 388 169.902C388 160.702 384.533 146.035 380.4 137.635C374.4 125.102 347.733 101.102 329.067 91.5019C325.733 89.7685 325.333 88.8352 325.333 83.3685C325.333 75.7685 321.867 70.0352 314.667 65.6352C309.333 62.3019 309.2 62.1685 310 56.1685C310.4 52.8352 310.267 49.6352 309.733 49.1019C309.067 48.5685 308.533 44.4352 308.4 39.9019C307.6 18.0352 305.733 -2.7648 304.933 0.30187ZM100.4 152.035C101.867 153.369 102.667 156.035 102.667 159.902V165.635H95.3333H88V159.769C88 154.969 88.6667 153.369 91.4667 151.102C95.0667 148.302 96.1333 148.435 100.4 152.035ZM522.667 159.235V165.635H515.2H507.867L508.4 159.502C508.667 154.969 509.733 152.702 512 150.969C515.067 148.702 515.467 148.702 518.933 150.702C522.133 152.569 522.667 153.635 522.667 159.235ZM137.467 194.569C139.333 199.502 138.133 201.635 133.333 201.635C128.533 201.635 127.333 199.502 129.2 194.569C130.133 192.302 131.6 190.969 133.333 190.969C135.067 190.969 136.533 192.302 137.467 194.569ZM481.333 192.835C482.133 193.902 482.667 196.169 482.4 197.902C482.133 200.302 481.067 201.102 477.733 201.369C473.6 201.769 473.333 201.635 473.333 197.235C473.333 194.835 473.733 192.302 474.267 191.902C475.733 190.302 479.6 190.835 481.333 192.835Z" fill="#76237F"/>
</svg>
